<mxfile host="app.diagrams.net" modified="2021-11-13T20:23:41.611Z" agent="5.0 (Windows NT 10.0; Win64; x64) AppleWebKit/537.36 (KHTML, like Gecko) Chrome/95.0.4638.69 Safari/537.36 Edg/95.0.1020.44" etag="DuCUIrw1XE855LZcAeKC" version="15.7.3" type="github">
  <diagram id="P18nnFJq5qHVMIi_ovW8" name="Page-1">
    <mxGraphModel dx="546" dy="1525" grid="1" gridSize="10" guides="1" tooltips="1" connect="1" arrows="1" fold="1" page="1" pageScale="1" pageWidth="850" pageHeight="1100" math="0" shadow="0">
      <root>
        <mxCell id="0" />
        <mxCell id="1" parent="0" />
        <mxCell id="XI5xEv8xIrn79TZSXg96-1" value="IPv4 192.168.1.8&lt;br&gt;&amp;nbsp;OS Linux&lt;br&gt;Attacker Machine&lt;br&gt;root@kali&amp;nbsp;" style="verticalLabelPosition=bottom;sketch=0;aspect=fixed;html=1;verticalAlign=top;strokeColor=none;align=center;outlineConnect=0;shape=mxgraph.citrix.laptop_2;" vertex="1" parent="1">
          <mxGeometry x="50" y="160" width="169.64" height="126.5" as="geometry" />
        </mxCell>
        <mxCell id="XI5xEv8xIrn79TZSXg96-2" value="IPv4 192.168.1.105&lt;br&gt;OS Linux&lt;br&gt;Capstone&lt;br&gt;" style="image;html=1;image=img/lib/clip_art/networking/Cloud_Server_128x128.png" vertex="1" parent="1">
          <mxGeometry x="350" width="140" height="130" as="geometry" />
        </mxCell>
        <mxCell id="XI5xEv8xIrn79TZSXg96-3" value="IPv4&amp;nbsp; 192.168.1.100&lt;br&gt;OS Linux&lt;br&gt;Elk" style="aspect=fixed;perimeter=ellipsePerimeter;html=1;align=center;shadow=0;dashed=0;spacingTop=3;image;image=img/lib/active_directory/web_server.svg;" vertex="1" parent="1">
          <mxGeometry x="400" y="230" width="144" height="180" as="geometry" />
        </mxCell>
        <mxCell id="XI5xEv8xIrn79TZSXg96-4" value="IPv4 192.168.1.1&lt;br&gt;OS Open User Interface or GUI&lt;br&gt;Kibana" style="aspect=fixed;html=1;points=[];align=center;image;fontSize=12;image=img/lib/azure2/other/Internet_Analyzer_Profiles.svg;" vertex="1" parent="1">
          <mxGeometry x="130" y="400" width="148.76" height="140" as="geometry" />
        </mxCell>
        <mxCell id="XI5xEv8xIrn79TZSXg96-5" value="Network&lt;br&gt;Address Range 192.168.1.0/24&lt;br&gt;Netmask 255.255.255.0&lt;br&gt;Gateway 192.168.1.1" style="text;html=1;align=center;verticalAlign=middle;resizable=0;points=[];autosize=1;strokeColor=none;fillColor=none;" vertex="1" parent="1">
          <mxGeometry x="59.64" y="-5" width="180" height="60" as="geometry" />
        </mxCell>
      </root>
    </mxGraphModel>
  </diagram>
</mxfile>
